<?xml version="1.0" encoding="UTF-8"?><svg xmlns="http://www.w3.org/2000/svg" xmlns:xlink="http://www.w3.org/1999/xlink" width="64px" height="64px" viewBox="0 0 64 64" version="1.1"><title>calculator</title><defs><path id="path-1" d="M63.833.04H.06V64H63.833V.04z"/></defs><g id="Page-1" stroke="none" stroke-width="1" fill="none" fill-rule="evenodd"><g id="calculator"><g id="Group-3"><mask id="mask-2" fill="#fff"><use xlink:href="#path-1"/></mask><path d="M63.833 32c0 17.673-14.326 32-32 32-17.673 0-32-14.327-32-32 0-17.673 14.327-32 32-32 17.674 0 32 14.327 32 32" id="Fill-1" fill="#4C5665" mask="url(#mask-2)"/></g><path d="M44 41a2 2 0 1 1-.001-3.999A2 2 0 0 1 44 41" id="Fill-4" fill="#414A55"/><path d="M44 53a2 2 0 1 1-.001-3.999A2 2 0 0 1 44 53" id="Fill-5" fill="#414A55"/><path d="M20 32a2 2 0 0 1-2-2v-4h-4a2 2 0 0 1 0-4h4v-4a2 2 0 0 1 4 0v4h4a2 2 0 1 1 0 4h-4v4a2 2 0 0 1-2 2" id="Fill-6" fill="#414A55"/><path d="M50 26H38a2 2 0 0 1 0-4h12a2 2 0 0 1 0 4" id="Fill-7" fill="#414A55"/><path d="M50 47H38a2 2 0 0 1 0-4h12a2 2 0 0 1 0 4" id="Fill-8" fill="#414A55"/><path d="M25.414 53.414A1.99 1.99 0 0 1 24 52.828l-4-4-4 4a1.99 1.99 0 0 1-1.414.586A1.998 1.998 0 0 1 13.172 50l4-4-4-4a1.998 1.998 0 0 1 1.414-3.414 1.99 1.99 0 0 1 1.414.586l4 4 4-4a1.99 1.99 0 0 1 1.414-.586A1.998 1.998 0 0 1 26.828 42l-4 4 4 4a1.998 1.998 0 0 1-1.414 3.414" id="Fill-9" fill="#414A55"/><path d="M46 37a2 2 0 1 0-3.999-.001A2 2 0 0 0 46 37" id="Fill-10" fill="#DEDECA"/><path d="M46 49a2 2 0 1 0-3.999-.001A2 2 0 0 0 46 49" id="Fill-11" fill="#DEDECA"/><path d="M28 22a2 2 0 0 1-2 2H14a2 2 0 1 1 0-4h12a2 2 0 0 1 2 2" id="Fill-12" fill="#F0CB83"/><path d="M52 22a2 2 0 0 1-2 2H38a2 2 0 1 1 0-4h12a2 2 0 0 1 2 2" id="Fill-13" fill="#D5915B"/><path d="M20 30a2 2 0 0 1-2-2V16a2 2 0 1 1 4 0v12a2 2 0 0 1-2 2" id="Fill-14" fill="#F0CB83"/><path d="M52 43a2 2 0 0 1-2 2H38a2 2 0 1 1 0-4h12a2 2 0 0 1 2 2" id="Fill-15" fill="#DEDECA"/><path d="M26.828 50.828a1.998 1.998 0 0 1-2.828 0L13.172 40a1.998 1.998 0 0 1 0-2.828 1.998 1.998 0 0 1 2.828 0L26.828 48a1.998 1.998 0 0 1 0 2.828" id="Fill-16" fill="#73BBA3"/><path d="M13.172 50.828a1.998 1.998 0 0 1 0-2.828L24 37.172a1.998 1.998 0 0 1 2.828 0 1.998 1.998 0 0 1 0 2.828L16 50.828a1.998 1.998 0 0 1-2.828 0" id="Fill-17" fill="#73BBA3"/></g></g><metadata><rdf:RDF xmlns:rdf="http://www.w3.org/1999/02/22-rdf-syntax-ns#" xmlns:rdfs="http://www.w3.org/2000/01/rdf-schema#" xmlns:dc="http://purl.org/dc/elements/1.1/"><rdf:Description about="https://iconscout.com/legal#licenses" dc:title="calculator" dc:description="calculator" dc:publisher="Iconscout" dc:date="2017-09-25" dc:format="image/svg+xml" dc:language="en"><dc:creator><rdf:Bag><rdf:li>Elegant Themes</rdf:li></rdf:Bag></dc:creator></rdf:Description></rdf:RDF></metadata></svg>